<svg width="100" height="100" viewBox="0 0 100 100" fill="none" xmlns="http://www.w3.org/2000/svg">
<path d="M29.6875 46.875H25.7812C24.3308 46.875 22.9398 46.2988 21.9143 45.2732C20.8887 44.2477 20.3125 42.8567 20.3125 41.4062C20.3125 39.9558 20.8887 38.5648 21.9143 37.5393C22.9398 36.5137 24.3308 35.9375 25.7812 35.9375H29.6875V46.875Z" fill="#FFCBBE"/>
<path d="M70.3125 46.875H74.2188C75.6692 46.875 77.0601 46.2988 78.0857 45.2732C79.1113 44.2477 79.6875 42.8567 79.6875 41.4062C79.6875 39.9558 79.1113 38.5648 78.0857 37.5393C77.0601 36.5137 75.6692 35.9375 74.2188 35.9375H70.3125V46.875Z" fill="#FFCBBE"/>
<path d="M78.125 95.3125H21.875L22.5469 81.875C22.7855 77.0712 24.8617 72.543 28.346 69.2274C31.8303 65.9118 36.4559 64.0626 41.2656 64.0625H58.7344C63.5441 64.0626 68.1697 65.9118 71.654 69.2274C75.1383 72.543 77.2145 77.0712 77.4531 81.875L78.125 95.3125Z" fill="#EC455A"/>
<path d="M21.875 95.3125H32.8125L34.375 81.25H22.5938L21.875 95.3125Z" fill="#FFCBBE"/>
<path d="M77.4063 81.25H65.625L67.1875 95.3125H78.125L77.4063 81.25Z" fill="#FFCBBE"/>
<path d="M63.875 64.7813C63.3326 68.0697 61.6398 71.0585 59.0986 73.2149C56.5574 75.3713 53.3329 76.555 50 76.555C46.6672 76.555 43.4427 75.3713 40.9014 73.2149C38.3602 71.0585 36.6675 68.0697 36.125 64.7813C37.7967 64.3033 39.527 64.0614 41.2657 64.0625H58.7344C60.4731 64.0614 62.2033 64.3033 63.875 64.7813Z" fill="#ECECEC"/>
<path d="M50 71.875C55.1777 71.875 59.375 67.6777 59.375 62.5C59.375 57.3223 55.1777 53.125 50 53.125C44.8223 53.125 40.625 57.3223 40.625 62.5C40.625 67.6777 44.8223 71.875 50 71.875Z" fill="#FFCBBE"/>
<path d="M50 65.625C44.1984 65.625 38.6344 63.3203 34.532 59.218C30.4297 55.1156 28.125 49.5516 28.125 43.75V28.125H71.875V43.75C71.875 49.5516 69.5703 55.1156 65.468 59.218C61.3656 63.3203 55.8016 65.625 50 65.625Z" fill="#FFDDCE"/>
<path d="M71.875 20.3125L69.7547 9.7125C69.4715 8.29566 68.7062 7.0207 67.5889 6.10455C66.4716 5.1884 65.0714 4.68765 63.6266 4.6875H34.8109C33.3661 4.68765 31.9659 5.1884 30.8486 6.10455C29.7313 7.0207 28.966 8.29566 28.6828 9.7125L26.5625 20.3125L18.75 28.125H79.6875L71.875 20.3125Z" fill="#7E543B"/>
<path d="M34.375 28.125L29.6875 35.9375H28.125V28.125H34.375Z" fill="#3E3D42"/>
<path d="M51.5625 28.125L46.875 35.9375L45.3125 28.125H51.5625Z" fill="#3E3D42"/>
<path d="M57.8125 28.125L53.125 34.375L51.5625 28.125H57.8125Z" fill="#3E3D42"/>
<path d="M65.625 28.125L70.3125 35.9375H71.875V28.125H65.625Z" fill="#3E3D42"/>
<path d="M40.625 42.1875C41.0394 42.1875 41.4368 42.0229 41.7299 41.7299C42.0229 41.4368 42.1875 41.0394 42.1875 40.625V37.5C42.1875 37.0856 42.0229 36.6882 41.7299 36.3951C41.4368 36.1021 41.0394 35.9375 40.625 35.9375C40.2106 35.9375 39.8132 36.1021 39.5201 36.3951C39.2271 36.6882 39.0625 37.0856 39.0625 37.5V40.625C39.0625 41.0394 39.2271 41.4368 39.5201 41.7299C39.8132 42.0229 40.2106 42.1875 40.625 42.1875Z" fill="#3E3D42"/>
<path d="M59.375 42.1875C59.7894 42.1875 60.1868 42.0229 60.4799 41.7299C60.7729 41.4368 60.9375 41.0394 60.9375 40.625V37.5C60.9375 37.0856 60.7729 36.6882 60.4799 36.3951C60.1868 36.1021 59.7894 35.9375 59.375 35.9375C58.9606 35.9375 58.5632 36.1021 58.2701 36.3951C57.9771 36.6882 57.8125 37.0856 57.8125 37.5V40.625C57.8125 41.0394 57.9771 41.4368 58.2701 41.7299C58.5632 42.0229 58.9606 42.1875 59.375 42.1875Z" fill="#3E3D42"/>
<path d="M60.9375 50H57.8125C57.8125 52.5406 54.2344 54.6875 50 54.6875C45.7656 54.6875 42.1875 52.5406 42.1875 50H39.0625C39.0625 54.375 43.8672 57.8125 50 57.8125C56.1328 57.8125 60.9375 54.375 60.9375 50Z" fill="#3E3D42"/>
</svg>
