<svg width="100" height="100" viewBox="0 0 100 100" fill="none" xmlns="http://www.w3.org/2000/svg">
<path d="M29.6875 46.875H25.7812C24.3308 46.875 22.9398 46.2988 21.9143 45.2732C20.8887 44.2477 20.3125 42.8567 20.3125 41.4062C20.3125 39.9558 20.8887 38.5648 21.9143 37.5393C22.9398 36.5137 24.3308 35.9375 25.7812 35.9375H29.6875V46.875Z" fill="#FFCBBE"/>
<path d="M70.3125 46.875H74.2188C75.6692 46.875 77.0601 46.2988 78.0857 45.2732C79.1113 44.2477 79.6875 42.8567 79.6875 41.4062C79.6875 39.9558 79.1113 38.5648 78.0857 37.5393C77.0601 36.5137 75.6692 35.9375 74.2188 35.9375H70.3125V46.875Z" fill="#FFCBBE"/>
<path d="M78.125 95.3125H21.875L22.5469 81.875C22.7874 77.0705 24.8653 72.5422 28.3509 69.2268C31.8364 65.9114 36.4629 64.0625 41.2734 64.0625H58.7266C63.5371 64.0625 68.1636 65.9114 71.6491 69.2268C75.1347 72.5422 77.2126 77.0705 77.4531 81.875L78.125 95.3125Z" fill="#3780EA"/>
<path d="M59.375 62.5C59.375 67.6781 50 78.125 50 78.125C50 78.125 40.625 67.6781 40.625 62.5C40.625 60.0136 41.6127 57.629 43.3709 55.8709C45.129 54.1127 47.5136 53.125 50 53.125C52.4864 53.125 54.871 54.1127 56.6291 55.8709C58.3873 57.629 59.375 60.0136 59.375 62.5Z" fill="#FFCBBE"/>
<path d="M50 65.625C44.1984 65.625 38.6344 63.3203 34.532 59.218C30.4297 55.1156 28.125 49.5516 28.125 43.75V23.4375L37.5 15.625H62.5L71.875 23.4375V43.75C71.875 49.5516 69.5703 55.1156 65.468 59.218C61.3656 63.3203 55.8016 65.625 50 65.625Z" fill="#FFDDCE"/>
<path d="M39.0625 39.0625V42.1875C39.0625 42.6019 39.2271 42.9993 39.5201 43.2924C39.8132 43.5854 40.2106 43.75 40.625 43.75C41.0394 43.75 41.4368 43.5854 41.7299 43.2924C42.0229 42.9993 42.1875 42.6019 42.1875 42.1875V39.0625C42.1875 38.6481 42.0229 38.2507 41.7299 37.9576C41.4368 37.6646 41.0394 37.5 40.625 37.5C40.2106 37.5 39.8132 37.6646 39.5201 37.9576C39.2271 38.2507 39.0625 38.6481 39.0625 39.0625Z" fill="#3E3D42"/>
<path d="M57.8125 39.0625V42.1875C57.8125 42.6019 57.9771 42.9993 58.2701 43.2924C58.5632 43.5854 58.9606 43.75 59.375 43.75C59.7894 43.75 60.1868 43.5854 60.4799 43.2924C60.7729 42.9993 60.9375 42.6019 60.9375 42.1875V39.0625C60.9375 38.6481 60.7729 38.2507 60.4799 37.9576C60.1868 37.6646 59.7894 37.5 59.375 37.5C58.9606 37.5 58.5632 37.6646 58.2701 37.9576C57.9771 38.2507 57.8125 38.6481 57.8125 39.0625Z" fill="#3E3D42"/>
<path d="M60.9375 53.125H57.8125C57.8125 55.6656 54.2344 57.8125 50 57.8125C45.7656 57.8125 42.1875 55.6656 42.1875 53.125H39.0625C39.0625 57.5 43.8672 60.9375 50 60.9375C56.1328 60.9375 60.9375 57.5 60.9375 53.125Z" fill="#3E3D42"/>
<path d="M73.4375 35.9375H70.3125L66.6531 28.6203C65.8746 27.0631 64.6779 25.7535 63.1971 24.8381C61.7162 23.9227 60.0097 23.4377 58.2687 23.4375H41.1328C39.5428 23.4375 37.9788 23.8419 36.5881 24.6127C35.1974 25.3835 34.0255 26.4954 33.1828 27.8438L28.125 35.9375H26.5625V20.0844C26.5625 19.214 26.8049 18.3608 27.2625 17.6204C27.72 16.8799 28.3747 16.2815 29.1531 15.8922L29.6875 15.625L28.125 10.9375H34.375L32.8125 4.6875H55.7594C58.081 4.68729 60.3798 5.14441 62.5247 6.03275C64.6696 6.92109 66.6185 8.22324 68.2602 9.86485C69.9018 11.5065 71.2039 13.4554 72.0923 15.6003C72.9806 17.7452 73.4377 20.044 73.4375 22.3656V35.9375Z" fill="#3E3D42"/>
<path d="M73.4375 34.3751L72.3328 33.2704L68.1766 37.4266C67.4721 35.4816 66.1434 33.8246 64.3978 32.7145C62.6522 31.6043 60.5881 31.1036 58.5278 31.2905C56.4676 31.4774 54.5273 32.3413 53.0099 33.7474C51.4925 35.1535 50.4836 37.0225 50.1406 39.0626H49.8594C49.5164 37.0225 48.5075 35.1535 46.9901 33.7474C45.4727 32.3413 43.5324 31.4774 41.4722 31.2905C39.4119 31.1036 37.3478 31.6043 35.6022 32.7145C33.8566 33.8246 32.5279 35.4816 31.8234 37.4266L27.6672 33.2704L26.5625 34.3751V35.9376L31.2844 41.3063C31.448 43.5916 32.4439 45.7376 34.0834 47.3381C35.7228 48.9385 37.8922 49.8824 40.1808 49.9909C42.4693 50.0995 44.7183 49.3653 46.5019 47.9272C48.2856 46.4892 49.4801 44.4471 49.8594 42.1876H50.1406C50.5199 44.4471 51.7144 46.4892 53.4981 47.9272C55.2817 49.3653 57.5307 50.0995 59.8192 49.9909C62.1078 49.8824 64.2772 48.9385 65.9167 47.3381C67.5561 45.7376 68.552 43.5916 68.7156 41.3063L73.4375 35.9376V34.3751ZM40.625 46.8751C39.3889 46.8751 38.1805 46.5085 37.1527 45.8218C36.1249 45.135 35.3238 44.1589 34.8508 43.0168C34.3777 41.8748 34.2539 40.6181 34.4951 39.4058C34.7362 38.1934 35.3315 37.0797 36.2056 36.2057C37.0797 35.3316 38.1933 34.7363 39.4057 34.4952C40.6181 34.254 41.8747 34.3778 43.0168 34.8508C44.1588 35.3239 45.1349 36.125 45.8217 37.1528C46.5084 38.1806 46.875 39.3889 46.875 40.6251C46.875 42.2827 46.2165 43.8724 45.0444 45.0445C43.8723 46.2166 42.2826 46.8751 40.625 46.8751ZM59.375 46.8751C58.1389 46.8751 56.9305 46.5085 55.9027 45.8218C54.8749 45.135 54.0738 44.1589 53.6008 43.0168C53.1277 41.8748 53.0039 40.6181 53.2451 39.4058C53.4862 38.1934 54.0815 37.0797 54.9556 36.2057C55.8297 35.3316 56.9433 34.7363 58.1557 34.4952C59.3681 34.254 60.6247 34.3778 61.7668 34.8508C62.9088 35.3239 63.8849 36.125 64.5717 37.1528C65.2584 38.1806 65.625 39.3889 65.625 40.6251C65.625 42.2827 64.9665 43.8724 63.7944 45.0445C62.6223 46.2166 61.0326 46.8751 59.375 46.8751Z" fill="#3E3D42"/>
</svg>
