<svg width="100" height="100" viewBox="0 0 100 100" fill="none" xmlns="http://www.w3.org/2000/svg">
<path d="M29.6875 46.875H25.7812C24.3308 46.875 22.9398 46.2988 21.9143 45.2732C20.8887 44.2477 20.3125 42.8567 20.3125 41.4062C20.3125 39.9558 20.8887 38.5648 21.9143 37.5393C22.9398 36.5137 24.3308 35.9375 25.7812 35.9375H29.6875V46.875Z" fill="#FFCBBE"/>
<path d="M70.3125 46.875H74.2188C75.6692 46.875 77.0601 46.2988 78.0857 45.2732C79.1113 44.2477 79.6875 42.8567 79.6875 41.4062C79.6875 39.9558 79.1113 38.5648 78.0857 37.5393C77.0601 36.5137 75.6692 35.9375 74.2188 35.9375H70.3125V46.875Z" fill="#FFCBBE"/>
<path d="M78.125 95.3125H21.875L22.5469 81.875C22.7874 77.0705 24.8653 72.5422 28.3509 69.2268C31.8364 65.9114 36.4629 64.0625 41.2734 64.0625H58.7266C63.5371 64.0625 68.1636 65.9114 71.6491 69.2268C75.1347 72.5422 77.2126 77.0705 77.4531 81.875L78.125 95.3125Z" fill="#6E76E5"/>
<path d="M50 73.4375C55.1777 73.4375 59.375 69.2402 59.375 64.0625C59.375 58.8848 55.1777 54.6875 50 54.6875C44.8223 54.6875 40.625 58.8848 40.625 64.0625C40.625 69.2402 44.8223 73.4375 50 73.4375Z" fill="#FFCBBE"/>
<path d="M50 65.625C44.1984 65.625 38.6344 63.3203 34.532 59.218C30.4297 55.1156 28.125 49.5516 28.125 43.75V23.4375L37.5 15.625H62.5L71.875 23.4375V43.75C71.875 49.5516 69.5703 55.1156 65.468 59.218C61.3656 63.3203 55.8016 65.625 50 65.625V65.625Z" fill="#FFDDCE"/>
<path d="M73.4375 29.6875H26.5625V28.125C26.5625 21.909 29.0318 15.9476 33.4272 11.5522C37.8226 7.1568 43.784 4.6875 50 4.6875C56.216 4.6875 62.1774 7.1568 66.5728 11.5522C70.9682 15.9476 73.4375 21.909 73.4375 28.125V29.6875Z" fill="#EC455A"/>
<path d="M32.8125 34.375H28.125V29.6875H35.9375L32.8125 34.375Z" fill="#3E3D42"/>
<path d="M67.1875 34.375H71.875V29.6875H64.0625L67.1875 34.375Z" fill="#3E3D42"/>
<path d="M25.5524 29.6875H65.6243L63.2805 23.8391C63.0488 23.26 62.6491 22.7635 62.1328 22.4134C61.6166 22.0634 61.0074 21.8759 60.3836 21.875H24.9274C24.4171 21.8757 23.9147 22.0014 23.4641 22.2411C23.0136 22.4808 22.6286 22.8272 22.3428 23.25C22.057 23.6729 21.8792 24.1592 21.8247 24.6667C21.7703 25.1741 21.8409 25.6871 22.0305 26.1609L22.6555 27.7234C22.8872 28.3025 23.287 28.799 23.8032 29.1491C24.3195 29.4991 24.9287 29.6866 25.5524 29.6875V29.6875Z" fill="#E28086"/>
<path d="M40.625 42.1875C41.0394 42.1875 41.4368 42.0229 41.7299 41.7299C42.0229 41.4368 42.1875 41.0394 42.1875 40.625V37.5C42.1875 37.0856 42.0229 36.6882 41.7299 36.3951C41.4368 36.1021 41.0394 35.9375 40.625 35.9375C40.2106 35.9375 39.8132 36.1021 39.5201 36.3951C39.2271 36.6882 39.0625 37.0856 39.0625 37.5V40.625C39.0625 41.0394 39.2271 41.4368 39.5201 41.7299C39.8132 42.0229 40.2106 42.1875 40.625 42.1875Z" fill="#3E3D42"/>
<path d="M59.375 42.1875C59.7894 42.1875 60.1868 42.0229 60.4799 41.7299C60.7729 41.4368 60.9375 41.0394 60.9375 40.625V37.5C60.9375 37.0856 60.7729 36.6882 60.4799 36.3951C60.1868 36.1021 59.7894 35.9375 59.375 35.9375C58.9606 35.9375 58.5632 36.1021 58.2701 36.3951C57.9771 36.6882 57.8125 37.0856 57.8125 37.5V40.625C57.8125 41.0394 57.9771 41.4368 58.2701 41.7299C58.5632 42.0229 58.9606 42.1875 59.375 42.1875Z" fill="#3E3D42"/>
<path d="M60.9375 50H57.8125C57.8125 52.5406 54.2344 54.6875 50 54.6875C45.7656 54.6875 42.1875 52.5406 42.1875 50H39.0625C39.0625 54.375 43.8672 57.8125 50 57.8125C56.1328 57.8125 60.9375 54.375 60.9375 50Z" fill="#3E3D42"/>
</svg>
