<svg width="244" height="40" viewBox="0 0 244 40" fill="none" xmlns="http://www.w3.org/2000/svg">
<path d="M94.9192 0.939697L90.8523 16.8177C90.2448 19.0932 89.7386 21.335 89.3167 23.56C89.3167 23.8128 89.1479 23.9476 88.8611 23.9476H82.8029C82.6891 23.9571 82.5761 23.9219 82.4879 23.8496C82.3997 23.7772 82.3432 23.6733 82.3304 23.56C81.9423 21.4361 81.5373 19.5989 81.1491 18.065L80.1198 13.6994C79.9173 12.8398 79.6979 11.6936 79.4448 10.3283C79.444 10.2712 79.4316 10.2149 79.4084 10.1627C79.3852 10.1106 79.3517 10.0637 79.3098 10.0249C79.2782 9.994 79.2358 9.9767 79.1916 9.9767C79.1475 9.9767 79.1051 9.994 79.0735 10.0249C79.0259 10.0597 78.9872 10.1055 78.9608 10.1582C78.9344 10.211 78.921 10.2693 78.9216 10.3283C78.7023 11.5925 78.4829 12.7218 78.2635 13.6994L77.2341 17.9976C76.9472 19.2281 76.5422 21.0653 76.036 23.4925C76.0317 23.5479 76.0166 23.6019 75.9913 23.6515C75.9661 23.701 75.9313 23.745 75.8889 23.7811C75.8466 23.8171 75.7975 23.8444 75.7446 23.8614C75.6916 23.8784 75.6358 23.8848 75.5804 23.8802H69.5222C69.2353 23.8802 69.0666 23.7454 69.0497 23.4925C68.6335 21.2451 68.1272 18.9977 67.531 16.7503L63.4134 0.939697C63.3122 0.636295 63.4134 0.467741 63.7847 0.467741H68.476C68.5891 0.457456 68.7021 0.48979 68.7926 0.558396C68.8832 0.627003 68.9448 0.726923 68.9653 0.838561L71.2266 9.77205C71.8087 12.1665 72.2148 14.6001 72.4416 17.0537C72.4378 17.1132 72.4499 17.1726 72.4766 17.2259C72.5032 17.2792 72.5436 17.3244 72.5935 17.3571C72.6371 17.3822 72.6866 17.3955 72.7369 17.3955C72.7873 17.3955 72.8367 17.3822 72.8804 17.3571C72.973 17.2738 73.0328 17.1602 73.0491 17.0368C73.3745 14.5808 73.8593 12.1485 74.5004 9.75519L76.9135 0.787996C76.9338 0.679447 76.9929 0.581978 77.0799 0.513754C77.1668 0.445529 77.2756 0.4112 77.386 0.41717H81.166C81.2736 0.415314 81.3783 0.451525 81.4617 0.519393C81.5451 0.58726 81.6017 0.68241 81.6217 0.787996L84.0685 9.72148C84.7078 12.1161 85.1981 14.548 85.5367 17.0031C85.5316 17.0651 85.5429 17.1274 85.5696 17.1836C85.5963 17.2398 85.6373 17.288 85.6885 17.3234C85.729 17.3488 85.7758 17.3623 85.8235 17.3623C85.8713 17.3623 85.9181 17.3488 85.9585 17.3234C86.0031 17.2868 86.0385 17.2403 86.0619 17.1876C86.0854 17.1349 86.0962 17.0775 86.0935 17.02C86.3039 14.5632 86.7159 12.1278 87.3254 9.73834L89.5698 0.804849C89.5973 0.69356 89.663 0.595457 89.7556 0.527674C89.8481 0.459892 89.9615 0.426745 90.0761 0.434029H94.6492C94.9192 0.417173 95.0373 0.585728 94.9192 0.939697Z" fill="#858C94"/>
<path d="M103.576 9.48593H111.676C111.736 9.4775 111.796 9.48302 111.853 9.50206C111.91 9.5211 111.962 9.55314 112.005 9.59565C112.047 9.63815 112.08 9.68996 112.099 9.74698C112.118 9.804 112.123 9.86467 112.115 9.92418V13.7336C112.115 14.0201 111.963 14.1549 111.676 14.1549H103.576V19.2116H114.393C114.452 19.2032 114.513 19.2087 114.57 19.2278C114.627 19.2468 114.679 19.2788 114.722 19.3213C114.764 19.3639 114.796 19.4157 114.815 19.4727C114.835 19.5297 114.84 19.5904 114.832 19.6499V23.4593C114.832 23.7458 114.68 23.8806 114.393 23.8806H98.6316C98.3447 23.8806 98.1928 23.7458 98.1928 23.4593V0.940127C98.1844 0.880608 98.1899 0.819943 98.2089 0.762925C98.228 0.705907 98.2601 0.654097 98.3026 0.61159C98.3452 0.569084 98.3971 0.53705 98.4541 0.518009C98.5112 0.498968 98.572 0.493447 98.6316 0.501883H114.562C114.882 0.501883 115 0.670438 114.933 1.00755L113.87 4.85063C113.85 4.9547 113.792 5.04791 113.708 5.11299C113.625 5.17808 113.52 5.21062 113.414 5.2046H103.576V9.48593Z" fill="#858C94"/>
<path d="M118.932 0.417628H127.944C130.078 0.298336 132.191 0.891298 133.951 2.10319C134.652 2.64162 135.213 3.341 135.586 4.14205C135.96 4.94309 136.134 5.82217 136.094 6.70478C136.173 7.64977 135.961 8.59623 135.488 9.41823C135.015 10.2402 134.302 10.8988 133.445 11.3064C133.32 11.3482 133.209 11.424 133.124 11.5255C133.092 11.5598 133.074 11.605 133.074 11.6519C133.074 11.6988 133.092 11.744 133.124 11.7783C133.197 11.8842 133.305 11.9616 133.428 11.9975C134.356 12.3802 135.17 12.9956 135.791 13.7841C136.54 14.8006 136.91 16.0467 136.837 17.307C136.881 18.2259 136.708 19.1422 136.333 19.9823C135.958 20.8225 135.39 21.563 134.677 22.1445C132.904 23.3832 130.76 23.9781 128.602 23.8301H118.932C118.875 23.8386 118.816 23.8336 118.761 23.8155C118.706 23.7973 118.656 23.7665 118.615 23.7255C118.574 23.6846 118.543 23.6346 118.525 23.5795C118.507 23.5245 118.502 23.466 118.51 23.4087V0.940155C118.51 0.569331 118.645 0.417628 118.932 0.417628ZM123.877 5.12035V9.48596H127.539C129.631 9.48596 130.677 8.74431 130.677 7.27787C130.695 6.9764 130.639 6.67519 130.516 6.39949C130.393 6.1238 130.205 5.88167 129.969 5.69344C129.375 5.27154 128.653 5.06894 127.927 5.12035H123.877ZM123.877 14.155V19.2117H128.517C129.286 19.2667 130.048 19.0389 130.661 18.5711C130.915 18.3542 131.115 18.0817 131.247 17.7748C131.379 17.4678 131.438 17.1347 131.42 16.8013C131.42 15.1157 130.256 14.155 127.91 14.155H123.877Z" fill="#858C94"/>
<path d="M145.696 0.940163V23.4593C145.705 23.5166 145.7 23.5751 145.682 23.6301C145.663 23.6851 145.632 23.7351 145.591 23.7761C145.55 23.8171 145.5 23.8479 145.445 23.866C145.39 23.8842 145.332 23.8892 145.274 23.8807H140.769C140.482 23.8807 140.33 23.7458 140.33 23.4593V0.940163C140.321 0.880645 140.327 0.819979 140.346 0.762961C140.365 0.705943 140.397 0.654133 140.44 0.611627C140.482 0.56912 140.534 0.537087 140.591 0.518046C140.648 0.499005 140.709 0.493484 140.769 0.50192H145.274C145.561 0.417642 145.696 0.569339 145.696 0.940163Z" fill="#858C94"/>
<path d="M155.383 19.2116H164.985C165.271 19.2116 165.406 19.3633 165.406 19.6499V23.4593C165.415 23.5166 165.41 23.5751 165.392 23.6301C165.374 23.6851 165.343 23.7351 165.302 23.7761C165.261 23.817 165.211 23.8478 165.156 23.866C165.1 23.8842 165.042 23.8892 164.985 23.8806H150.438C150.381 23.8892 150.322 23.8842 150.267 23.866C150.212 23.8478 150.162 23.817 150.121 23.7761C150.08 23.7351 150.049 23.6851 150.031 23.6301C150.013 23.5751 150.008 23.5166 150.016 23.4593V0.940127C150.016 0.653581 150.151 0.501883 150.438 0.501883H154.944C155.003 0.493447 155.064 0.498968 155.121 0.518009C155.178 0.53705 155.23 0.569084 155.273 0.61159C155.315 0.654097 155.347 0.705907 155.366 0.762925C155.386 0.819943 155.391 0.880608 155.383 0.940127V19.2116Z" fill="#858C94"/>
<path d="M174.452 0.940163V23.4593C174.46 23.5166 174.455 23.5751 174.437 23.6301C174.419 23.6851 174.388 23.7351 174.347 23.7761C174.306 23.8171 174.256 23.8479 174.201 23.866C174.146 23.8842 174.087 23.8892 174.03 23.8807H169.524C169.237 23.8807 169.085 23.7458 169.085 23.4593V0.940163C169.077 0.880645 169.082 0.819979 169.101 0.762961C169.12 0.705943 169.153 0.654133 169.195 0.611627C169.238 0.56912 169.29 0.537087 169.347 0.518046C169.404 0.499005 169.464 0.493484 169.524 0.50192H174.03C174.317 0.417642 174.452 0.569339 174.452 0.940163Z" fill="#858C94"/>
<path d="M202.447 0.940127V23.4592C202.447 23.7458 202.296 23.8806 202.009 23.8806H197.537C197.479 23.8892 197.421 23.8842 197.366 23.866C197.311 23.8478 197.261 23.817 197.22 23.7761C197.179 23.7351 197.148 23.6851 197.13 23.6301C197.111 23.5751 197.106 23.5166 197.115 23.4592V16.481C197.075 13.6946 197.205 10.9082 197.503 8.13748C197.503 7.91836 197.503 7.78351 197.351 7.73294C197.199 7.68238 197.115 7.73294 197.047 8.00263C196.834 8.5982 196.479 9.49155 195.984 10.6827L194.162 15.7394C194.061 16.0765 193.875 16.6383 193.605 17.4249C193.335 18.2171 193.166 18.7565 193.065 19.1105C193.048 19.2163 192.992 19.3117 192.907 19.3775C192.823 19.4432 192.716 19.4743 192.609 19.4645H188.593C188.487 19.4705 188.382 19.4379 188.299 19.3729C188.215 19.3078 188.158 19.2146 188.137 19.1105C187.496 17.1889 187.125 16.0765 187.007 15.7394L185.184 10.6827C185.083 10.4018 184.914 9.96351 184.678 9.36794C184.442 8.79485 184.273 8.33975 184.155 8.03634C184.037 7.73294 183.969 7.73294 183.834 7.76665C183.699 7.80037 183.649 7.95207 183.665 8.17119C184 10.9394 184.152 13.7266 184.121 16.5147V23.493C184.13 23.5503 184.125 23.6088 184.106 23.6638C184.088 23.7188 184.057 23.7688 184.016 23.8098C183.975 23.8507 183.925 23.8815 183.87 23.8997C183.815 23.9179 183.757 23.9229 183.699 23.9143H179.194C178.907 23.9143 178.755 23.7795 178.755 23.493V0.940127C178.746 0.880608 178.752 0.819942 178.771 0.762925C178.79 0.705907 178.822 0.654097 178.865 0.61159C178.907 0.569084 178.959 0.53705 179.016 0.518009C179.073 0.498968 179.134 0.493447 179.194 0.501883H185.944C186.054 0.495913 186.163 0.530235 186.25 0.59846C186.337 0.666685 186.396 0.764154 186.416 0.872702L187.142 3.13136L188.829 8.18805C189.555 10.2781 190.078 11.9637 190.399 13.2447C190.399 13.447 190.483 13.5481 190.652 13.5481C190.787 13.5481 190.871 13.447 190.922 13.2447C191.314 11.5343 191.798 9.84622 192.373 8.18805L194.162 3.13136C194.456 2.39613 194.698 1.64143 194.887 0.872702C194.915 0.761414 194.981 0.663304 195.073 0.595522C195.166 0.527739 195.279 0.494599 195.394 0.501883H202.042C202.099 0.498911 202.156 0.508498 202.209 0.529962C202.262 0.551427 202.309 0.584242 202.348 0.626077C202.387 0.667912 202.416 0.717739 202.433 0.772016C202.45 0.826294 202.455 0.88369 202.447 0.940127Z" fill="#858C94"/>
<path d="M206.852 1.68168L208.944 0.940034C210.717 0.34306 212.574 0.0301716 214.445 0.0129758C216.577 -0.103062 218.677 0.562267 220.352 1.88395C221.065 2.5124 221.626 3.29361 221.994 4.16923C222.362 5.04484 222.528 5.99224 222.478 6.94064C222.499 8.0822 222.163 9.20189 221.516 10.1432C220.67 11.2327 219.622 12.1485 218.428 12.8401L213.365 15.9078C212.801 16.2508 212.354 16.7561 212.083 17.3574C211.789 17.967 211.638 18.636 211.644 19.3127H221.584C221.87 19.3127 222.005 19.4644 222.005 19.7509V23.4592C222.014 23.5165 222.009 23.575 221.991 23.63C221.973 23.685 221.942 23.735 221.901 23.776C221.86 23.8169 221.81 23.8477 221.755 23.8659C221.699 23.8841 221.641 23.8891 221.584 23.8806H206.852C206.794 23.8891 206.736 23.8841 206.681 23.8659C206.625 23.8477 206.575 23.8169 206.534 23.776C206.493 23.735 206.463 23.685 206.444 23.63C206.426 23.575 206.421 23.5165 206.43 23.4592V21.4365C206.43 16.9192 207.948 13.6997 211.02 11.8119L215.897 8.76105C216.257 8.60426 216.567 8.35151 216.793 8.03044C217.02 7.70938 217.153 7.33237 217.179 6.94064C217.205 6.62355 217.153 6.30499 217.03 6.0117C216.907 5.71841 216.715 5.45895 216.47 5.25508C215.894 4.83681 215.19 4.63397 214.479 4.68199C213.136 4.68639 211.802 4.9084 210.53 5.33936L208.337 6.03044C208.285 6.05459 208.229 6.0666 208.172 6.06554C208.115 6.06447 208.059 6.05036 208.009 6.0243C207.958 5.99823 207.914 5.96091 207.88 5.91521C207.846 5.86951 207.824 5.81667 207.813 5.76075L206.582 2.15364C206.463 1.96823 206.548 1.79967 206.852 1.68168Z" fill="#858C94"/>
<path d="M243.724 14.4244V18.1327C243.724 18.4192 243.572 18.5541 243.285 18.5541H241.243V23.6107C241.243 23.8973 241.091 24.0321 240.804 24.0321H236.434C236.147 24.0321 235.995 23.8973 235.995 23.6107V18.5541H225.414C225.357 18.5626 225.298 18.5576 225.243 18.5394C225.188 18.5213 225.138 18.4905 225.097 18.4495C225.056 18.4085 225.025 18.3585 225.007 18.3035C224.989 18.2485 224.984 18.19 224.992 18.1327V14.0873C225.001 13.8985 225.065 13.7165 225.178 13.5648C226.089 12.486 226.866 11.3736 227.743 10.1937L232.434 3.70424C232.721 3.2997 233.362 2.32208 234.358 0.754504C234.406 0.66162 234.478 0.583926 234.568 0.53028C234.657 0.476634 234.76 0.449196 234.864 0.451102H240.788C240.847 0.442666 240.908 0.448187 240.965 0.467228C241.022 0.486269 241.074 0.518309 241.116 0.560815C241.159 0.603322 241.191 0.655132 241.21 0.71215C241.229 0.769168 241.235 0.829834 241.226 0.889352V13.9188H243.268C243.336 13.9027 243.407 13.9052 243.473 13.926C243.54 13.9467 243.599 13.9849 243.646 14.0367C243.693 14.0884 243.724 14.1517 243.738 14.2199C243.752 14.2881 243.747 14.3588 243.724 14.4244ZM235.995 13.9862V11.0533C236.005 9.72313 236.096 8.39477 236.265 7.07537C236.265 6.83939 236.265 6.68769 236.13 6.67084C235.995 6.65398 235.86 6.67084 235.708 6.94053L232.333 11.6432C231.916 12.2639 231.423 12.8302 230.865 13.3288C230.807 13.3808 230.764 13.4472 230.74 13.5212C230.717 13.5953 230.713 13.6743 230.73 13.7502C230.73 13.8682 230.899 13.9188 231.101 13.9188L235.995 13.9862Z" fill="#858C94"/>
<path d="M67.2568 31.7856C67.7786 31.7616 68.2995 31.8483 68.7853 32.04C69.271 32.2318 69.7106 32.5242 70.0749 32.8981C70.7429 33.743 71.1062 34.7881 71.1062 35.8647C71.1062 36.9412 70.7429 37.9863 70.0749 38.8312C69.7072 39.1995 69.2667 39.4871 68.7815 39.6757C68.2962 39.8643 67.777 39.9499 67.2568 39.9269C66.7337 39.9533 66.2109 39.8694 65.7225 39.6807C65.234 39.4919 64.7908 39.2025 64.4218 38.8312C63.7452 37.9902 63.3765 36.9436 63.3765 35.8647C63.3765 34.7857 63.7452 33.7391 64.4218 32.8981C64.7874 32.5212 65.2296 32.2269 65.7186 32.035C66.2076 31.8431 66.7321 31.758 67.2568 31.7856ZM68.2693 34.5162C68.1556 34.3559 68.0031 34.2271 67.8261 34.1416C67.649 34.0561 67.4532 34.0168 67.2568 34.0274C67.0557 34.0172 66.8552 34.0565 66.6728 34.1417C66.4904 34.2269 66.3317 34.3555 66.2105 34.5162C65.9392 34.9052 65.8083 35.3747 65.8393 35.8478C65.8059 36.3316 65.9367 36.8126 66.2105 37.2131C66.3336 37.3716 66.4927 37.4987 66.6746 37.5837C66.8565 37.6687 67.0561 37.7092 67.2568 37.7019C67.4525 37.708 67.6468 37.6667 67.8231 37.5816C67.9994 37.4964 68.1525 37.37 68.2693 37.2131C68.5432 36.8126 68.674 36.3316 68.6406 35.8478C68.6716 35.3747 68.5407 34.9052 68.2693 34.5162Z" fill="#858C94"/>
<path d="M74.7663 32.1059L74.9688 32.443C74.9688 32.561 75.1038 32.6116 75.1713 32.6116C75.2796 32.5897 75.3792 32.537 75.4582 32.4599C75.9652 32.013 76.6216 31.7724 77.2976 31.7857C78.1081 31.7422 78.9029 32.021 79.5082 32.561C79.7769 32.8372 79.9871 33.1646 80.1263 33.5237C80.2655 33.8828 80.3308 34.2663 80.3182 34.6511V39.5393C80.3182 39.691 80.3182 39.7584 80.1157 39.7584H78.0064C77.8545 39.7584 77.787 39.7584 77.787 39.5393V35.0388C77.8077 34.7652 77.7232 34.4939 77.5507 34.2803C77.4683 34.1946 77.3684 34.1276 77.2577 34.0839C77.1471 34.0403 77.0283 34.021 76.9095 34.0275C76.1163 34.0275 75.7113 34.5668 75.7113 35.713V39.5393C75.7113 39.691 75.7113 39.7584 75.5088 39.7584H73.3995C73.2476 39.7584 73.1801 39.7584 73.1801 39.5393V32.1733C73.1801 32.0385 73.1801 31.9711 73.3995 31.9711H74.5132C74.5641 31.9653 74.6155 31.9752 74.6607 31.9992C74.7059 32.0233 74.7428 32.0605 74.7663 32.1059Z" fill="#858C94"/>
<path d="M85.1444 28.4148V37.3988C85.1444 37.6011 85.2119 37.7022 85.3469 37.7022H85.4481C85.4998 37.6849 85.556 37.6874 85.6059 37.7092C85.6558 37.731 85.6958 37.7706 85.7181 37.8202L86.3594 39.5058C86.3773 39.5274 86.3895 39.5532 86.3949 39.5807C86.4004 39.6083 86.3988 39.6367 86.3904 39.6635C86.382 39.6903 86.3671 39.7146 86.3469 39.7341C86.3268 39.7537 86.3021 39.7679 86.275 39.7755C85.9811 39.8983 85.6655 39.9613 85.3469 39.9609C84.6202 40.0066 83.9047 39.7643 83.3556 39.2867C83.1046 39.0499 82.9082 38.7615 82.78 38.4413C82.6517 38.1211 82.5948 37.7769 82.6131 37.4326V28.4148C82.6131 28.2799 82.6131 28.2125 82.8325 28.2125H84.9419C84.9691 28.2099 84.9966 28.2133 85.0224 28.2226C85.0481 28.2318 85.0715 28.2466 85.0909 28.266C85.1102 28.2853 85.1251 28.3087 85.1343 28.3344C85.1436 28.3601 85.147 28.3876 85.1444 28.4148Z" fill="#858C94"/>
<path d="M91.0675 32.1738V39.5397C91.0675 39.6914 91.0675 39.7588 90.8482 39.7588H88.8231C88.6881 39.7588 88.6206 39.7588 88.6206 39.5397V34.1628H87.7938C87.7665 34.1654 87.739 34.1619 87.7133 34.1527C87.6875 34.1434 87.6641 34.1286 87.6448 34.1093C87.6254 34.09 87.6106 34.0666 87.6013 34.0409C87.5921 34.0152 87.5887 33.9877 87.5913 33.9605V32.1738C87.5887 32.1466 87.5921 32.1191 87.6013 32.0934C87.6106 32.0677 87.6254 32.0443 87.6448 32.025C87.6641 32.0057 87.6875 31.9908 87.7133 31.9816C87.739 31.9724 87.7665 31.9689 87.7938 31.9715H90.9157C91.0675 31.9715 91.0675 32.0389 91.0675 32.1738ZM89.5994 28.0442C89.7897 28.0334 89.9803 28.0607 90.1599 28.1244C90.3395 28.188 90.5047 28.2868 90.6457 28.415C90.7774 28.5604 90.8782 28.7309 90.942 28.9164C91.0058 29.1018 91.0313 29.2982 91.0169 29.4937C91.0357 29.8824 90.9026 30.2632 90.6457 30.5557C90.3477 30.7908 89.9791 30.9187 89.5994 30.9187C89.2197 30.9187 88.8511 30.7908 88.5531 30.5557C88.3093 30.2554 88.1761 29.8804 88.1761 29.4937C88.1761 29.1071 88.3093 28.7321 88.5531 28.4318C88.7007 28.2921 88.8763 28.1852 89.0683 28.1184C89.2603 28.0515 89.4644 28.0262 89.6669 28.0442H89.5994Z" fill="#858C94"/>
<path d="M95.1008 32.1064L95.3033 32.4435C95.3877 32.5615 95.4552 32.6121 95.5058 32.6121C95.6151 32.5932 95.7156 32.54 95.7927 32.4604C96.2997 32.0135 96.956 31.7729 97.6321 31.7861C98.4473 31.7455 99.2462 32.0236 99.8596 32.5615C100.39 33.1263 100.675 33.8776 100.653 34.6516V39.5397C100.653 39.6914 100.653 39.7589 100.45 39.7589H98.3408C98.2058 39.7589 98.1383 39.7589 98.1383 39.5397V35.0393C98.1543 34.7634 98.0637 34.4919 97.8852 34.2808C97.8028 34.195 97.7029 34.128 97.5922 34.0844C97.4815 34.0408 97.3627 34.0215 97.2439 34.0279C96.4508 34.0279 96.0458 34.5673 96.0458 35.7135V39.5397C96.0458 39.6914 96.0458 39.7589 95.8433 39.7589H93.7339C93.5989 39.7589 93.5314 39.7589 93.5314 39.5397V32.1738C93.5288 32.1466 93.5322 32.1192 93.5415 32.0934C93.5508 32.0677 93.5656 32.0443 93.5849 32.025C93.6043 32.0057 93.6277 31.9909 93.6534 31.9816C93.6792 31.9724 93.7067 31.9689 93.7339 31.9715H94.8645C94.9134 31.9642 94.9633 31.9735 95.0061 31.998C95.049 32.0224 95.0824 32.0606 95.1008 32.1064Z" fill="#858C94"/>
<path d="M109.158 39.506L108.162 39.7589C107.668 39.8639 107.165 39.9204 106.66 39.9274C106.116 39.9614 105.571 39.8815 105.059 39.6929C104.548 39.5042 104.081 39.2109 103.69 38.8318C103.326 38.4321 103.046 37.9637 102.866 37.4542C102.687 36.9447 102.611 36.4044 102.644 35.8652C102.602 34.8027 102.971 33.7648 103.673 32.966C104.055 32.593 104.51 32.303 105.01 32.1145C105.509 31.9259 106.042 31.8428 106.576 31.8704C107.418 31.831 108.248 32.0874 108.921 32.5952C109.205 32.834 109.429 33.1343 109.579 33.4732C109.728 33.8121 109.797 34.1806 109.782 34.5505C109.782 35.7978 108.888 36.5563 107.065 36.8091L105.209 37.0788C105.35 37.3354 105.561 37.5463 105.819 37.6867C106.076 37.8271 106.368 37.8911 106.66 37.871C107.001 37.8714 107.341 37.8318 107.673 37.753L108.618 37.5508C108.644 37.5402 108.673 37.5359 108.701 37.5382C108.73 37.5405 108.757 37.5494 108.782 37.564C108.806 37.5787 108.827 37.5989 108.842 37.6229C108.858 37.6469 108.868 37.6741 108.871 37.7025L109.309 39.388C109.343 39.4442 109.293 39.4835 109.158 39.506ZM105.057 35.3764L106.744 35.1236C107.234 35.1236 107.47 34.8707 107.47 34.4999C107.47 34.1291 107.149 33.9268 106.525 33.9268C106.164 33.9261 105.816 34.0581 105.546 34.2976C105.392 34.4322 105.269 34.5981 105.185 34.7841C105.1 34.9702 105.057 35.1721 105.057 35.3764Z" fill="#858C94"/>
<path d="M121.864 39.5054L120.886 39.7583C120.386 39.8643 119.877 39.9208 119.367 39.9268C118.82 39.9632 118.272 39.8845 117.757 39.6958C117.242 39.5071 116.773 39.2125 116.38 38.8312C116.013 38.4329 115.73 37.9651 115.547 37.4556C115.365 36.946 115.286 36.405 115.317 35.8646C115.284 34.7976 115.665 33.7591 116.38 32.9655C116.76 32.5899 117.215 32.2982 117.715 32.1095C118.215 31.9207 118.749 31.8391 119.283 31.8698C120.125 31.8332 120.954 32.0894 121.628 32.5946C121.911 32.8334 122.136 33.1337 122.285 33.4726C122.435 33.8115 122.504 34.18 122.489 34.5499C122.489 35.7972 121.578 36.5557 119.772 36.8085L117.916 37.0782C118.052 37.3349 118.26 37.5464 118.515 37.687C118.77 37.8277 119.06 37.8914 119.35 37.8705C119.697 37.8719 120.042 37.8323 120.379 37.7525L121.324 37.5502C121.459 37.5502 121.527 37.5502 121.561 37.7019L122.016 39.3875C122.05 39.4043 121.999 39.4886 121.864 39.5054ZM117.764 35.3758L119.451 35.123C119.941 35.123 120.194 34.8702 120.194 34.4993C120.194 34.1285 119.873 33.9262 119.232 33.9262C118.872 33.9286 118.524 34.0602 118.253 34.2971C117.955 34.5789 117.779 34.9662 117.764 35.3758Z" fill="#858C94"/>
<path d="M131.922 28.4148V39.5395C131.922 39.6912 131.922 39.7586 131.72 39.7586H130.606C130.555 39.7619 130.505 39.749 130.463 39.7217C130.42 39.6944 130.388 39.6541 130.37 39.6069L130.117 39.2361C129.993 39.0676 129.858 39.0676 129.712 39.2361C129.15 39.7058 128.435 39.952 127.703 39.9272C127.228 39.9478 126.755 39.8599 126.319 39.67C125.884 39.4801 125.497 39.1934 125.189 38.8316C124.526 37.9833 124.196 36.9223 124.261 35.8481C124.226 34.7976 124.58 33.7712 125.257 32.9658C125.6 32.5989 126.02 32.3109 126.486 32.1217C126.952 31.9326 127.454 31.8468 127.957 31.8702C128.316 31.8534 128.675 31.9227 129.003 32.0725L129.408 32.241V28.4148C129.405 28.3876 129.409 28.3601 129.418 28.3344C129.427 28.3087 129.442 28.2853 129.461 28.266C129.481 28.2466 129.504 28.2318 129.53 28.2226C129.556 28.2133 129.583 28.2099 129.61 28.2125H131.72C131.747 28.2099 131.774 28.2133 131.8 28.2226C131.826 28.2318 131.849 28.2466 131.869 28.266C131.888 28.2853 131.903 28.3087 131.912 28.3344C131.921 28.3601 131.925 28.3876 131.922 28.4148ZM129.442 34.3648L129.121 34.2131C128.809 34.0904 128.477 34.0275 128.142 34.0277C127.941 34.0176 127.741 34.0568 127.558 34.142C127.376 34.2273 127.217 34.3558 127.096 34.5165C126.825 34.9055 126.694 35.375 126.725 35.8481C126.715 36.3342 126.856 36.8113 127.13 37.2134C127.252 37.373 127.411 37.5008 127.593 37.5859C127.775 37.671 127.975 37.7109 128.176 37.7022C128.353 37.7095 128.529 37.6752 128.69 37.602C128.851 37.5288 128.993 37.4188 129.104 37.2809C129.338 36.9708 129.457 36.5898 129.442 36.2021V34.3648Z" fill="#858C94"/>
<path d="M139.786 39.6069L139.583 39.2698C139.583 39.1518 139.448 39.1012 139.381 39.1012C139.273 39.1232 139.173 39.1759 139.094 39.253C138.587 39.6998 137.931 39.9404 137.255 39.9272C136.853 39.9534 136.45 39.8983 136.07 39.765C135.69 39.6318 135.341 39.4232 135.044 39.1518C134.767 38.8678 134.552 38.5293 134.412 38.158C134.273 37.7866 134.212 37.3903 134.234 36.9943V32.1736C134.231 32.1464 134.235 32.1189 134.244 32.0932C134.253 32.0675 134.268 32.0441 134.288 32.0248C134.307 32.0054 134.33 31.9906 134.356 31.9814C134.382 31.9721 134.409 31.9687 134.436 31.9713H136.63C136.657 31.9687 136.685 31.9721 136.711 31.9814C136.736 31.9906 136.76 32.0054 136.779 32.0248C136.799 32.0441 136.813 32.0675 136.823 32.0932C136.832 32.1189 136.835 32.1464 136.833 32.1736V36.674C136.812 36.9477 136.897 37.2189 137.069 37.4325C137.151 37.5183 137.251 37.5853 137.362 37.6289C137.473 37.6725 137.591 37.6918 137.71 37.6854C138.503 37.6854 138.908 37.146 138.908 35.9998V32.1736C138.906 32.1464 138.909 32.1189 138.918 32.0932C138.928 32.0675 138.943 32.0441 138.962 32.0248C138.981 32.0054 139.005 31.9906 139.03 31.9814C139.056 31.9721 139.084 31.9687 139.111 31.9713H141.22C141.372 31.9713 141.44 31.9713 141.44 32.1736V39.5395C141.44 39.6912 141.44 39.7586 141.22 39.7586H140.005C139.959 39.7545 139.914 39.7383 139.876 39.7117C139.837 39.6851 139.806 39.649 139.786 39.6069Z" fill="#858C94"/>
<path d="M149.675 39.5058L148.763 39.7587C148.319 39.8834 147.858 39.9403 147.397 39.9272C146.86 39.9583 146.324 39.8768 145.821 39.6881C145.318 39.4994 144.86 39.2077 144.477 38.8316C143.799 37.9879 143.43 36.9384 143.43 35.8566C143.43 34.7748 143.799 33.7253 144.477 32.8816C144.869 32.5025 145.335 32.2092 145.846 32.0205C146.358 31.8318 146.903 31.7519 147.447 31.786C147.875 31.7771 148.302 31.834 148.713 31.9545L149.59 32.1905C149.62 32.1951 149.647 32.2066 149.671 32.224C149.695 32.2415 149.714 32.2643 149.727 32.2907C149.74 32.317 149.747 32.3462 149.747 32.3757C149.747 32.4051 149.739 32.4341 149.725 32.4602L149.219 34.1457C149.216 34.1741 149.206 34.2013 149.191 34.2254C149.175 34.2494 149.155 34.2695 149.13 34.2842C149.106 34.2988 149.078 34.3077 149.05 34.31C149.021 34.3123 148.993 34.308 148.966 34.2974L148.342 34.112C148.05 34.0296 147.75 33.9843 147.447 33.9772C146.401 33.9772 145.895 34.584 145.895 35.7807C145.858 36.2726 145.995 36.7618 146.283 37.1629C146.422 37.3284 146.599 37.4589 146.798 37.5438C146.998 37.6287 147.214 37.6657 147.43 37.6517C147.757 37.6479 148.081 37.5968 148.392 37.5L149.033 37.3314C149.06 37.3209 149.089 37.3166 149.117 37.3189C149.146 37.3212 149.173 37.3301 149.198 37.3447C149.222 37.3594 149.243 37.3795 149.258 37.4036C149.274 37.4276 149.283 37.4548 149.287 37.4832L149.81 39.1687C149.86 39.4047 149.81 39.489 149.675 39.5058Z" fill="#858C94"/>
<path d="M152.391 32.2241L152.999 32.0387C153.548 31.8835 154.116 31.7985 154.686 31.7859C155.691 31.7261 156.685 32.0116 157.505 32.5949C157.841 32.8678 158.108 33.2161 158.284 33.6115C158.46 34.007 158.54 34.4383 158.517 34.8704V39.5395C158.52 39.5689 158.516 39.5985 158.506 39.6263C158.496 39.654 158.479 39.6792 158.459 39.7001C158.438 39.721 158.412 39.737 158.385 39.7471C158.357 39.7572 158.327 39.7611 158.298 39.7586H157.116C157.064 39.7606 157.012 39.7473 156.967 39.7203C156.922 39.6934 156.886 39.654 156.863 39.6069L156.711 39.3203C156.633 39.1181 156.464 39.1181 156.205 39.3203C155.737 39.7243 155.136 39.9405 154.518 39.9271C153.724 39.9693 152.942 39.7305 152.307 39.2529C152.041 39.0221 151.831 38.7335 151.693 38.4092C151.556 38.0849 151.495 37.7336 151.514 37.3819C151.502 37.0547 151.572 36.7296 151.716 36.4356C151.86 36.1415 152.075 35.8876 152.341 35.6964C153.023 35.2426 153.835 35.0236 154.653 35.0727H156.138C156.134 34.9133 156.09 34.7573 156.01 34.619C155.931 34.4807 155.818 34.3644 155.682 34.2805C155.354 34.0771 154.971 33.9772 154.585 33.9939C154.236 34.0001 153.889 34.0569 153.556 34.1625L152.948 34.3311C152.923 34.3389 152.896 34.3416 152.87 34.339C152.843 34.3364 152.817 34.3287 152.794 34.3161C152.77 34.3036 152.749 34.2866 152.733 34.266C152.716 34.2454 152.703 34.2217 152.695 34.1962L152.206 32.5106C152.206 32.3421 152.24 32.241 152.391 32.2241ZM156.171 36.6066H154.686C154.483 36.6038 154.283 36.6625 154.113 36.7751C154.042 36.8236 153.985 36.8893 153.946 36.9659C153.908 37.0426 153.89 37.1277 153.893 37.2134C153.893 37.6853 154.197 37.9045 154.805 37.9045C154.98 37.9239 155.158 37.9054 155.326 37.8501C155.494 37.7949 155.648 37.7043 155.777 37.5843C155.907 37.4644 156.009 37.3181 156.077 37.1552C156.145 36.9923 156.177 36.8167 156.171 36.6403V36.6066Z" fill="#858C94"/>
<path d="M164.035 31.9715H165.841C165.868 31.9689 165.896 31.9723 165.921 31.9816C165.947 31.9908 165.971 32.0057 165.99 32.025C166.009 32.0443 166.024 32.0677 166.033 32.0934C166.043 32.1191 166.046 32.1466 166.044 32.1738V33.9605C166.046 33.9877 166.043 34.0152 166.033 34.0409C166.024 34.0666 166.009 34.09 165.99 34.1093C165.971 34.1286 165.947 34.1434 165.921 34.1527C165.896 34.1619 165.868 34.1654 165.841 34.1628H164.035V37.0619C164.035 37.4833 164.17 37.7024 164.457 37.7024C164.585 37.7279 164.717 37.7279 164.845 37.7024C164.871 37.6884 164.898 37.6798 164.927 37.6774C164.956 37.6749 164.985 37.6786 165.012 37.6882C165.039 37.6977 165.064 37.713 165.084 37.7329C165.105 37.7528 165.122 37.7769 165.132 37.8036L165.875 39.3206C165.875 39.4554 165.875 39.5566 165.875 39.6071C165.468 39.8686 164.992 40.0035 164.508 39.9948C164.115 40.0184 163.722 39.9634 163.351 39.8332C162.98 39.7029 162.639 39.5 162.348 39.2363C162.085 38.9551 161.881 38.6233 161.751 38.261C161.62 37.8987 161.565 37.5137 161.588 37.1293V34.1628H160.762C160.61 34.1628 160.542 34.1627 160.542 33.9605V32.1738C160.542 32.0389 160.542 31.9715 160.762 31.9715H161.588V30.286C161.583 30.2328 161.597 30.1795 161.628 30.1361C161.659 30.0926 161.705 30.062 161.757 30.05L163.85 29.342C164.002 29.342 164.086 29.342 164.086 29.5275L164.035 31.9715Z" fill="#858C94"/>
<path d="M171.241 32.1737V39.5396C171.241 39.6913 171.241 39.7587 171.039 39.7587H168.946C168.811 39.7587 168.744 39.7587 168.744 39.5396V34.1627H167.917C167.89 34.1653 167.862 34.1618 167.836 34.1526C167.811 34.1433 167.787 34.1285 167.768 34.1092C167.748 34.0899 167.734 34.0665 167.724 34.0408C167.715 34.0151 167.712 33.9876 167.714 33.9604V32.1737C167.712 32.1465 167.715 32.119 167.724 32.0933C167.734 32.0676 167.748 32.0442 167.768 32.0249C167.787 32.0056 167.811 31.9907 167.836 31.9815C167.862 31.9723 167.89 31.9688 167.917 31.9714H171.039C171.066 31.9688 171.093 31.9723 171.119 31.9815C171.145 31.9907 171.168 32.0056 171.188 32.0249C171.207 32.0442 171.222 32.0676 171.231 32.0933C171.24 32.119 171.244 32.1465 171.241 32.1737ZM169.79 28.0441C170.174 28.0261 170.549 28.1593 170.836 28.4149C171.09 28.7151 171.217 29.1018 171.191 29.4936C171.204 29.6865 171.177 29.88 171.114 30.0625C171.05 30.245 170.95 30.4127 170.819 30.5556C170.687 30.6914 170.526 30.7966 170.348 30.8636C170.17 30.9306 169.979 30.9578 169.79 30.9432C169.598 30.958 169.405 30.9309 169.224 30.864C169.044 30.7971 168.88 30.6918 168.744 30.5556C168.5 30.2553 168.367 29.8803 168.367 29.4936C168.367 29.107 168.5 28.732 168.744 28.4317C168.882 28.299 169.046 28.196 169.226 28.1293C169.406 28.0626 169.598 28.0336 169.79 28.0441Z" fill="#858C94"/>
<path d="M177.13 31.7856C177.652 31.7605 178.174 31.8467 178.659 32.0385C179.145 32.2303 179.585 32.5234 179.949 32.8981C180.625 33.7391 180.994 34.7857 180.994 35.8646C180.994 36.9436 180.625 37.9902 179.949 38.8312C179.177 39.5372 178.168 39.9287 177.122 39.9287C176.076 39.9287 175.067 39.5372 174.295 38.8312C173.627 37.9863 173.264 36.9412 173.264 35.8646C173.264 34.7881 173.627 33.743 174.295 32.8981C174.661 32.5212 175.103 32.2269 175.592 32.035C176.081 31.8431 176.606 31.758 177.13 31.7856ZM178.16 34.5162C178.035 34.3644 177.878 34.2421 177.7 34.1582C177.522 34.0743 177.327 34.0307 177.13 34.0307C176.934 34.0307 176.739 34.0743 176.561 34.1582C176.383 34.2421 176.226 34.3644 176.101 34.5162C175.824 34.903 175.687 35.3727 175.713 35.8478C175.684 36.3336 175.821 36.8147 176.101 37.2131C176.226 37.3649 176.383 37.4871 176.561 37.5711C176.739 37.655 176.934 37.6985 177.13 37.6985C177.327 37.6985 177.522 37.655 177.7 37.5711C177.878 37.4871 178.035 37.3649 178.16 37.2131C178.434 36.8126 178.564 36.3316 178.531 35.8478C178.582 35.3825 178.475 34.9136 178.227 34.5162H178.16Z" fill="#858C94"/>
<path d="M184.707 32.1061L184.91 32.4432C184.91 32.5612 185.062 32.6117 185.129 32.6117C185.236 32.5859 185.335 32.5337 185.416 32.46C185.921 32.0103 186.579 31.7692 187.256 31.7858C188.066 31.7442 188.86 32.0227 189.466 32.5612C189.735 32.8373 189.945 33.1647 190.084 33.5238C190.223 33.883 190.289 34.2664 190.276 34.6513V39.5394C190.279 39.5688 190.275 39.5985 190.265 39.6262C190.255 39.654 190.239 39.6792 190.218 39.7001C190.197 39.7209 190.172 39.737 190.144 39.7471C190.116 39.7572 190.086 39.7611 190.057 39.7585H187.947C187.812 39.7585 187.745 39.7585 187.745 39.5394V35.039C187.758 34.7663 187.674 34.4978 187.509 34.2804C187.423 34.1943 187.32 34.1272 187.207 34.0836C187.093 34.04 186.972 34.0209 186.851 34.0276C186.057 34.0276 185.669 34.567 185.669 35.7132V39.5394C185.669 39.6911 185.669 39.7585 185.45 39.7585H183.341C183.206 39.7585 183.138 39.7585 183.138 39.5394V32.1735C183.135 32.1463 183.139 32.1188 183.148 32.0931C183.157 32.0674 183.172 32.044 183.192 32.0247C183.211 32.0054 183.234 31.9905 183.26 31.9813C183.286 31.9721 183.313 31.9686 183.341 31.9712H184.471C184.589 31.9712 184.674 32.0049 184.707 32.1061Z" fill="#858C94"/>
<path d="M34.9996 1.89954V27.4912C34.9996 28.8128 34.474 30.0803 33.5384 31.0148C32.6029 31.9493 31.3339 32.4742 30.0108 32.4742C28.6877 32.4742 27.4188 31.9493 26.4832 31.0148C25.5477 30.0803 25.0221 28.8128 25.0221 27.4912V4.42358L17.4933 6.32311V27.4912C17.4933 28.8128 16.9677 30.0803 16.0321 31.0148C15.0965 31.9493 13.8276 32.4742 12.5045 32.4742C11.1814 32.4742 9.9125 31.9493 8.97693 31.0148C8.04135 30.0803 7.51575 28.8128 7.51575 27.4912V8.86016L1.37611e-05 10.7467V27.4912C-0.00364107 29.9525 0.720798 32.3599 2.08236 34.4113C3.44393 36.4627 5.38193 38.0665 7.653 39.0215C9.92407 39.9764 12.427 40.2398 14.8474 39.7786C17.2679 39.3175 19.498 38.1523 21.2577 36.4294C23.0172 38.1471 25.245 39.3082 27.662 39.7673C30.079 40.2263 32.578 39.963 34.8459 39.0102C37.1138 38.0574 39.0499 36.4575 40.4118 34.4109C41.7737 32.3642 42.5009 29.9617 42.5023 27.5042V0L34.9996 1.89954Z" fill="#858C94"/>
</svg>
