<svg width="50" height="50" viewBox="0 0 50 50" fill="none" xmlns="http://www.w3.org/2000/svg">
<path d="M37.4041 4.39453V45.6055C37.4041 48.0283 35.4324 50 33.0095 50H4.39624C1.97339 50 0.00170898 48.0283 0.00170898 45.6055V4.39453C0.00170898 1.97168 1.97339 0 4.39624 0H33.0095C35.4324 0 37.4041 1.97168 37.4041 4.39453Z" fill="#EEF4FF"/>
<path d="M37.4031 4.39453V45.6055C37.4031 48.0283 35.4314 50 33.0085 50H18.7507V0H33.0085C35.4314 0 37.4031 1.97168 37.4031 4.39453Z" fill="#D9E6FC"/>
<path d="M31.1531 10.9375C31.1531 11.7461 30.4968 12.4023 29.6882 12.4023H7.81323C7.00464 12.4023 6.34839 11.7461 6.34839 10.9375C6.34839 10.1289 7.00464 9.47266 7.81323 9.47266H29.6882C30.4968 9.47266 31.1531 10.1289 31.1531 10.9375Z" fill="#425796"/>
<path d="M31.1531 10.9375C31.1531 11.7461 30.4968 12.4023 29.6882 12.4023H18.6531V9.47266H29.6882C30.4968 9.47266 31.1531 10.1289 31.1531 10.9375Z" fill="#283758"/>
<path d="M26.4656 18.75C26.4656 19.5586 25.8093 20.2148 25.0007 20.2148H7.81323C7.00464 20.2148 6.34839 19.5586 6.34839 18.75C6.34839 17.9414 7.00464 17.2852 7.81323 17.2852H25.0007C25.8093 17.2852 26.4656 17.9414 26.4656 18.75Z" fill="#425796"/>
<path d="M26.4656 18.75C26.4656 19.5586 25.8093 20.2148 25.0007 20.2148H18.6531V17.2852H25.0007C25.8093 17.2852 26.4656 17.9414 26.4656 18.75Z" fill="#283758"/>
<path d="M21.7781 26.5625C21.7781 27.3711 21.1218 28.0273 20.3132 28.0273H7.81323C7.00464 28.0273 6.34839 27.3711 6.34839 26.5625C6.34839 25.7539 7.00464 25.0977 7.81323 25.0977H20.3132C21.1218 25.0977 21.7781 25.7539 21.7781 26.5625Z" fill="#425796"/>
<path d="M21.7781 26.5625C21.7781 27.3711 21.1218 28.0273 20.3132 28.0273H18.6531V25.0977H20.3132C21.1218 25.0977 21.7781 25.7539 21.7781 26.5625Z" fill="#283758"/>
<path d="M49.5945 21.8057C49.4119 22.1143 48.8016 22.7412 44.7117 26.7774C42.3416 29.1162 38.8026 32.6016 33.5018 37.834C33.2469 38.087 33.8231 37.7784 24.8055 41.9864C23.5604 42.5694 22.285 41.2676 22.8582 40.0391C27.0731 31.0088 26.7566 31.5948 27.0174 31.337C32.3006 26.0537 35.8104 22.542 38.1434 20.209C42.6776 15.6729 42.7664 15.5869 42.7772 15.5987C43.952 14.6494 45.6404 14.7432 46.6971 15.7998C49.3436 18.4463 49.2156 18.3086 49.3436 18.4678C50.0936 19.3819 50.2313 20.7188 49.5945 21.8057Z" fill="#FFE278"/>
<path d="M49.5945 21.8057C49.3064 22.293 47.949 23.5742 33.5017 37.834C33.2468 38.0869 33.823 37.7783 24.8054 41.9863C24.6072 42.0791 24.3953 42.124 24.1863 42.124C23.781 42.124 23.4275 41.9648 23.1697 41.7139L47.8914 16.9932C49.3035 18.4043 49.238 18.3369 49.3435 18.4678C50.0935 19.3818 50.2312 20.7188 49.5945 21.8057Z" fill="#FFB454"/>
<path d="M49.5944 21.8057C49.4118 22.1143 48.8015 22.7412 44.7116 26.7774L44.7038 26.7705L41.4089 23.4756L38.1433 20.211V20.209C42.6774 15.6729 42.7663 15.5869 42.7771 15.5987C43.9519 14.6494 45.6403 14.7432 46.697 15.7998C47.1823 16.2852 47.5739 16.6768 47.8913 16.9932C49.3054 18.4063 49.239 18.3379 49.3435 18.4678C50.0935 19.3819 50.2312 20.7188 49.5944 21.8057Z" fill="#DD5958"/>
<path d="M49.5949 21.8057C49.4123 22.1143 48.8019 22.7412 44.7121 26.7774L44.7043 26.7705L41.4093 23.4756L47.8918 16.9932C49.3058 18.4063 49.2394 18.3379 49.3439 18.4678C50.0939 19.3818 50.2316 20.7188 49.5949 21.8057Z" fill="#D8225B"/>
</svg>
