<svg width="50" height="50" viewBox="0 0 50 50" fill="none" xmlns="http://www.w3.org/2000/svg">
<path d="M25.0001 42.647L25.9805 38.2525L25.0001 33.8235L10.2942 14.7058H2.9413V42.647L13.2124 44.1348L25.0001 42.647Z" fill="#88B4F9"/>
<path d="M10.294 0V33.8235H24.9999L26.4705 16.9118L24.9999 0C24.0069 0 11.287 0 10.294 0Z" fill="#F9F9F9"/>
<path d="M47.0588 42.6471C47.0588 41.6398 47.0588 34.9206 47.0588 33.8235L36.0294 32.8431L25 33.8235V42.6471L36.8339 44.1349L47.0588 42.6471Z" fill="#6B6FDA"/>
<path d="M50 33.8235C50 31.4116 50 1.66275 50 0C49.2948 0 25.7052 0 25 0V33.8235H50Z" fill="#E7F1F9"/>
<path d="M21.4501 5.88232H24.3913V8.8235H21.4501V5.88232Z" fill="#BCF0AE"/>
<path d="M27.3324 5.88232H30.2736V8.8235H27.3324V5.88232Z" fill="#CD4957"/>
<path d="M15.567 5.88232H18.5081V8.8235H15.567V5.88232Z" fill="#F1CB30"/>
<path d="M21.8804 26.0397L16.4287 20.5882L21.8804 15.1366L23.9601 17.2162L20.5882 20.5882L23.9601 23.9601L21.8804 26.0397Z" fill="#37617A"/>
<path d="M36.5863 17.2162C37.7104 18.3403 38.8348 19.4648 39.9581 20.5882C38.834 21.7123 37.7096 22.8368 36.5863 23.9601C37.3136 24.6875 37.9386 25.3125 38.666 26.0398C39.3254 25.3803 43.4537 21.252 44.1176 20.5882C43.458 19.9287 39.3298 15.8004 38.666 15.1366C37.9386 15.8639 37.3136 16.4889 36.5863 17.2162Z" fill="#254050"/>
<path d="M27.3605 27.6528C28.3692 27.8545 29.2359 28.0278 30.2446 28.2295C30.6021 26.4419 32.8274 15.3153 33.1858 13.5238C32.8999 13.4666 30.593 13.0051 30.3017 12.9469C29.9441 14.7345 27.7188 25.8611 27.3605 27.6528Z" fill="#254050"/>
<path d="M25 50H-1.52588e-05V42.6471H25L25.9804 46.1765L25 50Z" fill="#447895"/>
<path d="M25 42.6471H50V50H25V42.6471Z" fill="#37617A"/>
</svg>
