<svg width="50" height="44" viewBox="0 0 50 44" fill="none" xmlns="http://www.w3.org/2000/svg">
<path d="M1.46484 36.6484V42.5078H25H48.5352V36.6484H25H1.46484Z" fill="#DFE7F4"/>
<path d="M25 1.49219H1.46484V7.35156H25H48.5352V1.49219H25Z" fill="#DFE7F4"/>
<path d="M25 1.49219H48.5352V7.35156H25V1.49219Z" fill="#C7CFE1"/>
<path d="M25 36.6484H48.5352V42.5078H25V36.6484Z" fill="#C7CFE1"/>
<path d="M25 7.35156H2.92969V36.6484H25H47.0703V7.35156H25Z" fill="#FF641A"/>
<path d="M25 7.35156H47.0703V36.6484H25V7.35156Z" fill="#F03800"/>
<path d="M0 35.1836V43.9727H25H50V35.1836H25H0ZM7.91016 41.043H2.92969V38.1133H7.91016V41.043ZM15.7227 41.043H10.8398V38.1133H15.7227V41.043ZM23.5352 41.043H18.6523V38.1133H23.5352V41.043ZM42.0898 38.1133H47.0703V41.043H42.0898V38.1133ZM34.2773 38.1133H39.1602V41.043H34.2773V38.1133ZM26.4648 38.1133H31.3477V41.043H26.4648V38.1133Z" fill="#404A80"/>
<path d="M25 0.0273438H0V8.81641H25H50V0.0273438H25ZM7.91016 5.88672H2.92969V2.95703H7.91016V5.88672ZM15.7227 5.88672H10.8398V2.95703H15.7227V5.88672ZM23.5352 5.88672H18.6523V2.95703H23.5352V5.88672ZM31.3477 5.88672H26.4648V2.95703H31.3477V5.88672ZM39.1603 5.88672H34.2773V2.95703H39.1603V5.88672ZM47.0703 5.88672H42.0802V2.95703H47.0703V5.88672Z" fill="#404A80"/>
<path d="M31.3477 5.88672H26.4648V2.95703H31.3477V5.88672ZM39.1603 5.88672H34.2773V2.95703H39.1603V5.88672ZM25 0.0273438V8.81641H50V0.0273438H25ZM47.0703 5.88672H42.0802V2.95703H47.0703V5.88672Z" fill="#283366"/>
<path d="M50 35.1836H25V43.9727H50V35.1836ZM31.3477 41.043H26.4648V38.1133H31.3477V41.043ZM39.1602 41.043H34.2773V38.1133H39.1602V41.043ZM47.0703 41.043H42.0898V38.1133H47.0703V41.043Z" fill="#283366"/>
<path d="M25 16.3335L20.6055 13.4041V30.5959L25 27.6664L33.5001 22L25 16.3335Z" fill="#F0F7FF"/>
<path d="M25 16.3336V27.6664L33.5001 22L25 16.3336Z" fill="#DFE7F4"/>
</svg>
