<svg width="32" height="31" viewBox="0 0 32 31" fill="none" xmlns="http://www.w3.org/2000/svg">
<path d="M26.2771 1.42614V20.6399C26.2771 21.6322 25.8825 22.5837 25.1801 23.2853C24.4777 23.9869 23.525 24.3811 22.5316 24.3811C21.5383 24.3811 20.5856 23.9869 19.8832 23.2853C19.1807 22.5837 18.7861 21.6322 18.7861 20.6399V3.32114L13.1337 4.74728V20.6399C13.1337 21.6322 12.7391 22.5837 12.0366 23.2853C11.3342 23.9869 10.3815 24.3811 9.38818 24.3811C8.39482 24.3811 7.44214 23.9869 6.73972 23.2853C6.03731 22.5837 5.64269 21.6322 5.64269 20.6399V6.65206L1.03316e-05 8.06843V20.6399C-0.00273365 22.4878 0.541162 24.2953 1.5634 25.8354C2.58564 27.3756 4.04066 28.5797 5.74574 29.2966C7.45082 30.0136 9.32996 30.2113 11.1472 29.8651C12.9644 29.5189 14.6387 28.6441 15.9599 27.3506C17.2809 28.6402 18.9535 29.5119 20.7682 29.8566C22.5828 30.2012 24.459 30.0035 26.1617 29.2882C27.8644 28.5728 29.318 27.3717 30.3405 25.8351C31.363 24.2985 31.909 22.4948 31.91 20.6497V0L26.2771 1.42614Z" fill="#B43E5F"/>
</svg>
