<svg width="80" height="80" viewBox="0 0 80 80" fill="none" xmlns="http://www.w3.org/2000/svg">
<path d="M22.2625 10.6287V11.2726H64.0961C66.4557 11.2726 68.3862 13.2025 68.3862 15.5621V68.7079H75.7104C78.0695 68.7079 80 66.7774 80 64.4184V10.6287C77.9724 10.6287 26.643 10.6287 22.2625 10.6287Z" fill="#B4DBFF"/>
<path d="M22.2625 11.2726H64.0961C66.4557 11.2726 68.3862 13.2025 68.3862 15.5621V68.7079H73.537V15.2405C73.537 13.5584 73.0774 11.9824 72.2803 10.6287C57.3077 10.6287 25.6603 10.6287 22.2625 10.6287V11.2726Z" fill="#8BCAFF"/>
<path d="M0 21.5791V75.3688C0 77.7278 1.93054 79.6584 4.28955 79.6584H64.4178C66.7774 79.6584 68.7073 77.7278 68.7073 75.3688V21.5791H0Z" fill="#D9EDFF"/>
<path d="M4.70887 75.3688V21.5791H0V75.3688C0 77.7278 1.93054 79.6584 4.28956 79.6584H8.99842C6.6388 79.6584 4.70887 77.7278 4.70887 75.3688Z" fill="#B4DBFF"/>
<path d="M75.7104 0H22.2625V10.9503H80V4.29017C80 1.93054 78.0695 0 75.7104 0Z" fill="#4F66D1"/>
<path d="M72.4622 10.9504C70.9247 8.07935 67.8961 6.12134 64.4177 6.12134H22.2625V10.9504H72.4622Z" fill="#314DCA"/>
<path d="M64.4176 10.9504H10.9703V21.9008H68.7078V15.2406C68.7078 12.881 66.7773 10.9504 64.4176 10.9504Z" fill="#6C7FD9"/>
<path d="M74.5595 6.68274H71.1861C70.519 6.68274 69.9782 6.14197 69.9782 5.47546C69.9782 4.80835 70.519 4.26819 71.1861 4.26819H74.5595C75.2266 4.26819 75.7668 4.80835 75.7668 5.47546C75.7668 6.14197 75.2266 6.68274 74.5595 6.68274Z" fill="#314DCA"/>
<path d="M63.2673 17.6332H59.8933C59.2268 17.6332 58.686 17.0924 58.686 16.4259C58.686 15.7588 59.2268 15.2186 59.8933 15.2186H63.2673C63.9338 15.2186 64.4746 15.7588 64.4746 16.4259C64.4746 17.0924 63.9344 17.6332 63.2673 17.6332Z" fill="#4F66D1"/>
<path d="M22.5843 0H15.5824C13.2227 0 11.2922 1.93054 11.2922 4.28956V10.9503H22.5843V0Z" fill="#FF4755"/>
<path d="M17.566 6.12122C16.7683 6.12122 16.1219 5.47486 16.1219 4.67713V4.29017C16.1219 1.93054 18.0518 0 20.4115 0H15.5824C13.2227 0 11.2922 1.93054 11.2922 4.29017V10.9503H22.5843V6.12122H17.566Z" fill="#FC2B3A"/>
<path d="M11.2921 10.9504H4.28956C1.93054 10.9504 0 12.881 0 15.2406V21.9008H11.2921V10.9504Z" fill="#FF646F"/>
<path d="M8.99842 10.9504H4.28956C1.93054 10.9504 0 12.881 0 15.2406V21.9008H4.70887V15.2406C4.70887 12.881 6.6388 10.9504 8.99842 10.9504Z" fill="#FF4755"/>
<path d="M42.7823 57.1382C42.1012 56.208 42.3032 54.9019 43.2334 54.2207L49.8587 49.3709L43.2334 44.5204C42.3032 43.8392 42.1012 42.5331 42.7823 41.6029C43.4629 40.6733 44.769 40.4707 45.6992 41.1519L54.625 47.6869C55.7633 48.52 55.7633 50.2223 54.625 51.0548L45.6992 57.5892C44.769 58.2704 43.4629 58.0684 42.7823 57.1382Z" fill="#6C7FD9"/>
<path d="M23.0084 57.5891L14.0826 51.0546C12.9443 50.2215 12.9443 48.5192 14.0826 47.6867L23.0084 41.1523C23.9386 40.4711 25.2442 40.6732 25.9253 41.6033C26.6065 42.5335 26.4044 43.8397 25.4743 44.5202L18.8489 49.3707L25.4743 54.2205C26.4044 54.9017 26.6065 56.2078 25.9253 57.138C25.2448 58.0676 23.9386 58.2708 23.0084 57.5891Z" fill="#6C7FD9"/>
<path d="M28.1064 61.7486C27.0725 61.2383 26.6483 59.9871 27.1579 58.9532L37.5241 37.9412C38.0344 36.9073 39.2856 36.4825 40.3196 36.9927C41.3535 37.5024 41.7783 38.7542 41.268 39.7881L30.9018 60.8001C30.3922 61.834 29.1403 62.2588 28.1064 61.7486Z" fill="#6C7FD9"/>
<path d="M45.8194 57.1063C45.1572 56.1664 45.4214 54.859 46.3492 54.1797L52.2018 49.895C52.5565 49.635 52.5565 49.1058 52.2018 48.8464L46.3492 44.5612C45.4214 43.8825 45.1572 42.5745 45.8188 41.6351C45.8817 41.546 45.9518 41.4655 46.0251 41.3892L45.7004 41.1517C44.7702 40.4706 43.464 40.6732 42.7835 41.6028C42.1024 42.533 42.3044 43.8391 43.2346 44.5203L49.8599 49.3701L43.2346 54.2206C42.3044 54.9017 42.1024 56.2079 42.7835 57.1381C43.464 58.0683 44.7702 58.2703 45.7004 57.5891L46.0251 57.3517C45.9518 57.276 45.8817 57.1955 45.8194 57.1063Z" fill="#4F66D1"/>
<path d="M17.1413 51.0549C16.003 50.2217 16.0036 48.5195 17.1413 47.687L25.7436 41.3893C25.0301 40.6478 23.8619 40.5275 23.0086 41.1525L14.0828 47.687C12.9451 48.5201 12.9445 50.2217 14.0828 51.0549L23.0086 57.5893C23.8625 58.2143 25.0301 58.0935 25.7436 57.3525L17.1413 51.0549Z" fill="#4F66D1"/>
<path d="M30.2176 58.9533L40.5838 37.9413C40.6754 37.7552 40.7919 37.5904 40.9256 37.4457C40.7578 37.2644 40.5557 37.1088 40.3207 36.9928C39.2868 36.4826 38.0356 36.9074 37.5253 37.9413L27.1591 58.9533C26.6495 59.9872 27.0737 61.2385 28.1076 61.7487C28.956 62.1668 29.9496 61.9556 30.5612 61.2958C29.9893 60.6794 29.8239 59.7522 30.2176 58.9533Z" fill="#4F66D1"/>
</svg>
