<svg width="50" height="50" viewBox="0 0 50 50" fill="none" xmlns="http://www.w3.org/2000/svg">
<g clip-path="url(#clip0_0_313)">
<path d="M49.3778 25.6039C49.3778 39.0774 38.4556 50 24.9821 50C11.5086 50 0.585938 39.0774 0.585938 25.6039C0.585938 12.1304 11.5086 1.20813 24.9821 1.20813C38.4556 1.20813 49.3778 12.1304 49.3778 25.6039Z" fill="#FDD33A"/>
<path d="M25.248 18.8247H12.9494C7.33681 18.8247 2.78702 23.3745 2.78702 28.9871C2.78702 33.047 5.16815 36.5508 8.60977 38.1786C9.99184 38.8324 10.8784 40.2187 10.8784 41.7476V43.9277C10.8784 44.7566 11.9495 45.087 12.4161 44.4023L14.8235 40.8714C15.5582 39.7941 16.7778 39.1494 18.0817 39.1494H25.248C30.8605 39.1494 35.4103 34.5996 35.4103 28.9871C35.4099 23.3745 30.8601 18.8247 25.248 18.8247Z" fill="#F8FAFD"/>
<path d="M12.4931 38.1786C9.05151 36.5508 6.67038 33.047 6.67038 28.9871C6.67038 23.3745 11.2202 18.8247 16.8327 18.8247H12.9494C7.33681 18.8247 2.78702 23.3745 2.78702 28.9871C2.78702 33.047 5.16777 36.5508 8.60939 38.1786C9.99184 38.8324 10.878 40.2187 10.878 41.7476V43.9277C10.878 44.7566 11.9492 45.087 12.4161 44.4023L14.6976 41.0556C14.4749 39.8105 13.6627 38.7317 12.4931 38.1786Z" fill="#DDDDDD"/>
<path d="M14.0957 29.1812C14.0957 30.2173 13.2561 31.0573 12.22 31.0573C11.1839 31.0573 10.3439 30.2173 10.3439 29.1812C10.3439 28.1452 11.1839 27.3052 12.22 27.3052C13.2561 27.3052 14.0957 28.1452 14.0957 29.1812Z" fill="#7956BA"/>
<path d="M20.9747 29.1812C20.9747 30.2173 20.1347 31.0573 19.0987 31.0573C18.0626 31.0573 17.2226 30.2173 17.2226 29.1812C17.2226 28.1452 18.0626 27.3052 19.0987 27.3052C20.1347 27.3052 20.9747 28.1452 20.9747 29.1812Z" fill="#7956BA"/>
<path d="M27.8534 29.1812C27.8534 30.2173 27.0134 31.0573 25.9773 31.0573C24.9413 31.0573 24.1013 30.2173 24.1013 29.1812C24.1013 28.1452 24.9413 27.3052 25.9773 27.3052C27.0134 27.3052 27.8534 28.1452 27.8534 29.1812Z" fill="#7956BA"/>
<path d="M24.6376 0H36.9358C42.5484 0 47.0982 4.54979 47.0982 10.1624C47.0982 14.2223 44.7174 17.7258 41.2758 19.3539C39.8933 20.0077 39.0072 21.394 39.0072 22.9229V25.103C39.0072 25.9315 37.936 26.2623 37.4691 25.5775L35.0616 22.0463C34.3273 20.969 33.1078 20.3247 31.8035 20.3247H24.6376C19.025 20.3247 14.4753 15.7749 14.4753 10.1624C14.4753 4.54979 19.025 0 24.6376 0Z" fill="#F84E82"/>
<path d="M35.9859 19.0304H28.8197C23.2071 19.0304 18.6573 14.4802 18.6573 8.86801C18.6573 5.16814 20.6348 1.93022 23.5905 0.152954C18.47 0.677094 14.4753 5.00296 14.4753 10.2619C14.4753 15.8745 19.025 20.4243 24.6376 20.4243H31.8039C33.1078 20.4243 34.3273 21.0689 35.0616 22.1462L37.4691 25.6771C37.936 26.3618 39.0072 26.0315 39.0072 25.2025V23.0224C39.0072 22.3442 39.1823 21.6942 39.4974 21.1235L39.2437 20.7523C38.5094 19.6747 37.2898 19.0304 35.9859 19.0304Z" fill="#DD3A71"/>
<path d="M39.5416 10.3565C39.5416 11.3926 38.7016 12.2326 37.6656 12.2326C36.6295 12.2326 35.7895 11.3926 35.7895 10.3565C35.7895 9.32047 36.6295 8.48047 37.6656 8.48047C38.7016 8.48047 39.5416 9.32047 39.5416 10.3565Z" fill="#F8FAFD"/>
<path d="M32.6626 10.3565C32.6626 11.3926 31.823 12.2326 30.7869 12.2326C29.7508 12.2326 28.9108 11.3926 28.9108 10.3565C28.9108 9.32047 29.7508 8.48047 30.7869 8.48047C31.823 8.48047 32.6626 9.32047 32.6626 10.3565Z" fill="#F8FAFD"/>
<path d="M25.7839 10.3565C25.7839 11.3926 24.9439 12.2326 23.9079 12.2326C22.8718 12.2326 22.0318 11.3926 22.0318 10.3565C22.0318 9.32047 22.8718 8.48047 23.9079 8.48047C24.9439 8.48047 25.7839 9.32047 25.7839 10.3565Z" fill="#F8FAFD"/>
</g>
<defs>
<clipPath id="clip0_0_313">
<rect width="50" height="50" fill="white"/>
</clipPath>
</defs>
</svg>
