<svg width="50" height="50" viewBox="0 0 50 50" fill="none" xmlns="http://www.w3.org/2000/svg">
<path d="M1.5625 1.95312H48.4375V31.25H1.5625V1.95312Z" fill="#FF6378"/>
<path d="M25 1.95312H48.4375V31.25H25V1.95312Z" fill="#D0004F"/>
<path d="M19.1406 33.2031H7.42188C6.61289 33.2031 5.95703 32.5473 5.95703 31.7383V29.7852C5.95703 25.7466 9.24268 22.4609 13.2812 22.4609C17.3198 22.4609 20.6055 25.7466 20.6055 29.7852V31.7383C20.6055 32.5473 19.9496 33.2031 19.1406 33.2031Z" fill="#8BB9FF"/>
<path d="M19.1406 33.2031C19.9496 33.2031 20.6055 32.5473 20.6055 31.7383V29.7852C20.6055 25.7466 17.3198 22.4609 13.2812 22.4609V33.2031H19.1406Z" fill="#4793FF"/>
<path d="M13.2812 25.3906C10.3196 25.3906 7.91016 22.9812 7.91016 20.0195C7.91016 17.0579 10.3196 14.6484 13.2812 14.6484C16.2429 14.6484 18.6523 17.0579 18.6523 20.0195C18.6523 22.9812 16.2429 25.3906 13.2812 25.3906Z" fill="#FFC3AA"/>
<path d="M18.6523 20.0195C18.6523 17.0579 16.2429 14.6484 13.2812 14.6484V25.3906C16.2429 25.3906 18.6523 22.9812 18.6523 20.0195Z" fill="#FAAA8C"/>
<path d="M35.9094 47.62L35.0535 46.55C33.2934 44.3501 32.3242 41.5869 32.3242 38.7695C32.3242 37.9605 31.6683 37.3047 30.8593 37.3047H19.1406C18.3316 37.3047 17.6757 37.9605 17.6757 38.7695C17.6757 41.5869 16.7065 44.3501 14.9464 46.5501L14.0905 47.62C13.7387 48.0598 13.6702 48.6621 13.914 49.1697H36.0859C36.3297 48.6622 36.2612 48.0598 35.9094 47.62Z" fill="#453D81"/>
<path d="M35.0535 46.5501C33.2935 44.3501 32.3242 41.5869 32.3242 38.7695C32.3242 37.9605 31.6684 37.3047 30.8594 37.3047H25V49.1697H36.0859C36.3299 48.6622 36.2612 48.0598 35.9095 47.62L35.0535 46.5501Z" fill="#2E2654"/>
<path d="M38.6719 50H11.3281C10.5191 50 9.86328 49.3441 9.86328 48.5352C9.86328 47.7262 10.5191 47.0703 11.3281 47.0703H38.6719C39.4809 47.0703 40.1367 47.7262 40.1367 48.5352C40.1367 49.3441 39.4809 50 38.6719 50Z" fill="#5E54AC"/>
<path d="M38.6719 47.0703H25V50H38.6719C39.4809 50 40.1367 49.3441 40.1367 48.5352C40.1367 47.7262 39.4809 47.0703 38.6719 47.0703Z" fill="#453D81"/>
<path d="M45.6055 0H4.39453C1.97139 0 0 1.97139 0 4.39453V35.8398C0 38.263 1.97139 40.2344 4.39453 40.2344H45.6055C48.0286 40.2344 50 38.263 50 35.8398V4.39453C50 1.97139 48.0286 0 45.6055 0ZM47.0703 30.2734H2.92969V4.39453C2.92969 3.58682 3.58682 2.92969 4.39453 2.92969H45.6055C46.4132 2.92969 47.0703 3.58682 47.0703 4.39453V30.2734Z" fill="#5E54AC"/>
<path d="M45.6055 0H25V2.92969H45.6055C46.4132 2.92969 47.0703 3.58682 47.0703 4.39453V30.2734H25V40.2344H45.6055C48.0286 40.2344 50 38.263 50 35.8398V4.39453C50 1.97139 48.0286 0 45.6055 0Z" fill="#453D81"/>
<path d="M42.5784 26.3672H23.0471C22.2381 26.3672 21.5823 25.7113 21.5823 24.9023V13.6719H17.1878C16.5711 13.6719 16.0204 13.2856 15.8104 12.7057C15.6004 12.1257 15.7762 11.4765 16.25 11.0816L22.1093 6.19883C22.3726 5.97949 22.7045 5.85938 23.0471 5.85938H42.5784C43.3874 5.85938 44.0432 6.51523 44.0432 7.32422V24.9023C44.0432 25.7113 43.3874 26.3672 42.5784 26.3672Z" fill="#E1F0FF"/>
<path d="M42.5781 5.85938H25V26.3672H42.5781C43.3871 26.3672 44.043 25.7113 44.043 24.9023V7.32422C44.043 6.51523 43.3871 5.85938 42.5781 5.85938Z" fill="#BEDCF0"/>
<path d="M36.7188 14.6484H28.9062C28.0973 14.6484 27.4414 13.9926 27.4414 13.1836C27.4414 12.3746 28.0973 11.7188 28.9062 11.7188H36.7188C37.5277 11.7188 38.1836 12.3746 38.1836 13.1836C38.1836 13.9926 37.5277 14.6484 36.7188 14.6484Z" fill="#453D81"/>
<path d="M36.7188 20.5078H28.9062C28.0973 20.5078 27.4414 19.852 27.4414 19.043C27.4414 18.234 28.0973 17.5781 28.9062 17.5781H36.7188C37.5277 17.5781 38.1836 18.234 38.1836 19.043C38.1836 19.852 37.5277 20.5078 36.7188 20.5078Z" fill="#453D81"/>
</svg>
